<?xml version="1.0" encoding="utf-8"?>
<svg
    xmlns:xlink="http://www.w3.org/1999/xlink"
    xmlns="http://www.w3.org/2000/svg"
    id="wave"
    style="transform: rotate(0deg); transition: 0.3s"
    viewBox="0 0 1440 150"
    version="1.1"
  >
    <defs>
      <linearGradient id="sw-gradient-0" x1="0" x2="0" y1="1" y2="0">
        <stop stop-color="rgba(220, 20, 60, 1)" offset="0%" />
      </linearGradient>
    </defs>
    <path
      style="transform: translate(0, 0px); opacity: 1"
      fill="url(#sw-gradient-0)"
      d="M0,20L30,30C60,40,120,60,180,70C240,80,300,80,360,80C420,80,480,80,540,76.7C600,73,660,67,720,76.7C780,87,840,113,900,106.7C960,100,1020,60,1080,40C1140,20,1200,20,1260,23.3C1320,27,1380,33,1440,36.7C1500,40,1560,40,1620,53.3C1680,67,1740,93,1800,103.3C1860,113,1920,107,1980,90C2040,73,2100,47,2160,53.3C2220,60,2280,100,2340,116.7C2400,133,2460,127,2520,130C2580,133,2640,147,2700,140C2760,133,2820,107,2880,93.3C2940,80,3000,80,3060,93.3C3120,107,3180,133,3240,143.3C3300,153,3360,147,3420,140C3480,133,3540,127,3600,133.3C3660,140,3720,160,3780,150C3840,140,3900,100,3960,70C4020,40,4080,20,4140,20C4200,20,4260,40,4290,50L4320,60L4320,200L4290,200C4260,200,4200,200,4140,200C4080,200,4020,200,3960,200C3900,200,3840,200,3780,200C3720,200,3660,200,3600,200C3540,200,3480,200,3420,200C3360,200,3300,200,3240,200C3180,200,3120,200,3060,200C3000,200,2940,200,2880,200C2820,200,2760,200,2700,200C2640,200,2580,200,2520,200C2460,200,2400,200,2340,200C2280,200,2220,200,2160,200C2100,200,2040,200,1980,200C1920,200,1860,200,1800,200C1740,200,1680,200,1620,200C1560,200,1500,200,1440,200C1380,200,1320,200,1260,200C1200,200,1140,200,1080,200C1020,200,960,200,900,200C840,200,780,200,720,200C660,200,600,200,540,200C480,200,420,200,360,200C300,200,240,200,180,200C120,200,60,200,30,200L0,200Z"
    />
  </svg>